<?xml version="1.0" encoding="utf-8"?>

<!-- Uploaded to: SVG Repo, www.svgrepo.com, Generator: SVG Repo Mixer Tools -->
<svg width="20px" height="20px" viewBox="0 -0.19 241.35 241.35" xmlns="http://www.w3.org/2000/svg">

<defs>

<style>.cls-1{fill: pink;}</style>

</defs>

<g id="Layer_2" data-name="Layer 2">

<g id="Layer_1-2" data-name="Layer 1">

<path d="M173.92,100.52c3.36.27,6.72.51,10.08.82a109.65,109.65,0,0,1,41.79,12.12,34.81,34.81,0,0,1,12.39,10.41c5.25,7.38,4,14.95-3.67,19.92-4.33,2.81-9,5-14.35,5.31-6.28.39-12.54,1.18-18.83,1.35a51.12,51.12,0,0,1-17.73-2.74c-4.61-1.56-9.2-3.16-13.85-4.58a13.33,13.33,0,0,0-8.11-.49c.82,1.45,1.25,2.83,2.16,3.69,12.54,11.8,20.73,26.54,28.35,41.67a54.35,54.35,0,0,1,5.8,17.89,53.56,53.56,0,0,1-.27,13.62c-.64,4.55-3.94,7.44-8.05,9.36-7.48,3.48-15.06,2.8-22.61.39C160.08,227,154.22,223,149,218c-10.12-9.54-18.21-20.51-23.33-33.55a25.21,25.21,0,0,0-2.19-3.44,31.28,31.28,0,0,0-2.54,9.52,140.29,140.29,0,0,1-5.47,25.13c-3,8.85-7.39,16.68-15.19,22.26C95,241.67,89.48,241.8,84,239.19a23.39,23.39,0,0,1-13.2-16c-1.63-6.48-1.51-13-.76-19.64A128.5,128.5,0,0,1,78.09,172c.58-1.51.93-3.11,1.57-5.28-3.46,0-5.35,1.73-7.39,3.07A133,133,0,0,1,47,182.62c-7.27,2.82-14.73,4.74-22.61,2.83a35.11,35.11,0,0,1-5.74-1.7c-9.56-4.16-12.62-11.07-9.1-20.91a23.53,23.53,0,0,1,4.07-7.48c4.69-5.36,9.65-10.51,14.73-15.51,4.11-4.06,9.45-6.24,14.67-8.53,2-.89,4.55-1.09,5.61-4.09-3-.68-6-1.42-9-2-13.74-2.67-25.13-9.9-34.51-19.71C-3.61,96.32-.08,84.66,7.38,80.14c3.5-2.13,7.46-2.8,11.53-2.92a102.27,102.27,0,0,1,39.49,7c2.6,1,5,2.51,9.17,2.55-5.48-6.09-10.09-11.51-15-16.61A62.17,62.17,0,0,1,35.9,38.74a21.74,21.74,0,0,1-.48-3.4C34.77,21.2,44.87,10.25,61,13.88c10.49,2.36,18.57,8.91,24.9,17.27,4.46,5.9,7.92,12.57,11.82,18.9,1.16,1.89,2.31,3.78,3.38,5.54,2.3-.58,2.18-2.17,2.4-3.51C104.66,45,105.69,38,107,30.91c1.47-8,5.21-15.13,10-21.66,5.92-8.06,14.24-10.36,23.6-8.78,8.28,1.4,15.87,10.24,16.7,18.6a42.38,42.38,0,0,1-1.82,18.62c-2.46,7-4.52,14.16-6.69,21.27-.15.47.14,1.08.3,2,3-2.37,6-4.49,8.82-6.89,11.15-9.67,24.26-13.64,38.8-13.64a25,25,0,0,1,15.14,5.3c5.92,4.38,7.15,9.76,4.31,16.64-4.72,11.41-13.44,19-23.76,25-6.36,3.74-12.69,7.54-19,11.31Zm-85,4.47c-8.94-1-16.81-4.08-24.5-7.85a95.72,95.72,0,0,0-37.2-9.53c-4.89-.28-9.7-.16-14.41,2.54-2.19,5.58-1.31,10.68,3.61,14.42a137.88,137.88,0,0,0,14.38,9.3,27.32,27.32,0,0,0,8.69,3.44c5.61,1,11.36,1.2,17,1.92,6.81.86,13.62,1.72,20.36,2.94,3.52.64,5.85,2.94,5.41,4.64-.73,2.82-3.1,3.91-5.65,4.58-5,1.3-9.94,2.73-15,3.77-16.57,3.39-29.19,12.66-39,26a20.21,20.21,0,0,0-3,6.13c-2,6.69,2.29,11.27,9.27,10.06A31.39,31.39,0,0,0,33,176.27a134.57,134.57,0,0,0,34.74-16.6c6.63-4.44,13.85-8,20.84-11.91a4.09,4.09,0,0,1,4.83.4A4.84,4.84,0,0,1,95,153.6c-1.27,4.09-2.54,8.17-3.77,12.27-3.06,10.14-6.34,20.22-9.07,30.44a57.23,57.23,0,0,0-1.86,22.12A21.08,21.08,0,0,0,85.56,230c1.8,2.06,4,2.59,6,.87a54.23,54.23,0,0,0,8.51-8.35c4.8-6.27,6.81-13.84,8.37-21.42,1.9-9.25,3.7-18.55,4.84-27.92.61-5,2.24-10.12.54-15.29-.62-1.91.4-3.28,1.94-4.33a4.19,4.19,0,0,1,4.84,0,11.81,11.81,0,0,1,5,6.75c4.11,12.25,9.95,23.75,16.3,34.94a69.2,69.2,0,0,0,18.73,21.06c3.93,3,8.07,5.34,13.11,6,11.3,1.48,15.66-4,14.19-13.36a56.85,56.85,0,0,0-3.68-14c-3.47-7.83-7.61-15.38-11.67-22.94a77,77,0,0,0-15.19-19.62c-3.34-3.13-6.59-6.37-9.71-9.72a20.42,20.42,0,0,1-3.29-5c-1.59-3.27.18-6.79,3.72-6.87a37.67,37.67,0,0,1,11,1.13c9.08,2.56,18,5.7,27,8.45a43.12,43.12,0,0,0,10,2.16c5.71.33,11.45.09,17.18,0A27.13,27.13,0,0,0,227.08,138c4.61-2.86,5.08-8.72,1.14-12.47a39.73,39.73,0,0,0-11.51-7.38c-9.85-4.33-20.31-5.85-30.85-6.69-10.84-.87-21.73-1-32.59-1.69a28,28,0,0,1-7.47-1.68,8.22,8.22,0,0,1-3.17-2.7,2.9,2.9,0,0,1,.93-4.4c.75-.4,1.59-.63,2.37-1,14.4-6.37,28.51-13.3,41.76-21.85a91.91,91.91,0,0,0,11-8.15c3.7-3.26,5.93-7.7,7.61-12.29,1.3-3.57-.56-6.16-4.38-6.68a32.7,32.7,0,0,0-3.43-.18c-12.29-.37-23.08,3.63-32.53,11.34a239,239,0,0,0-29.68,28.54,6.17,6.17,0,0,1-6.78,2.18,5.67,5.67,0,0,1-4.84-5.14c8.31-15.65,16.08-36.53,21-54.46A38,38,0,0,0,146.33,18a17.92,17.92,0,0,0-2.24-5.49,5.46,5.46,0,0,0-5.74-2.94c-4.74.41-8.86,2-11.86,6a50.55,50.55,0,0,0-8.08,16c-3.21,10.75-4.69,21.82-6,32.9-.7,5.92-2.37,11.85-.7,17.89a4.13,4.13,0,0,1-.12,1.7c-.45,2.6-4.18,4.28-6,2.5a20.4,20.4,0,0,1-4.62-6c-2.47-5.46-4.11-11.31-6.78-16.65-4.87-9.71-9.83-19.43-15.56-28.64-3.8-6.1-9.37-10.67-17-12.15C53.56,21.54,48.13,25,46.7,33c-.78,4.37,0,8.55,1.34,12.68A56.11,56.11,0,0,0,60.57,67Q76,83.78,91.36,100.55c.31.34.21,1,.35,1.86Z"/>

<path class="cls-1" d="M88.91,105l2.8-2.58c-.14-.82,0-1.52-.35-1.86Q76,83.75,60.57,67A56.11,56.11,0,0,1,48,45.71C46.74,41.58,45.92,37.4,46.7,33c1.43-8.06,6.86-11.49,14.91-9.91,7.61,1.48,13.18,6.05,17,12.15,5.73,9.21,10.69,18.93,15.56,28.64,2.67,5.34,4.31,11.19,6.78,16.65a20.4,20.4,0,0,0,4.62,6c1.86,1.78,5.59.1,6-2.5a4.13,4.13,0,0,0,.12-1.7c-1.67-6,0-12,.7-17.89,1.31-11.08,2.79-22.15,6-32.9a50.55,50.55,0,0,1,8.08-16c3-4,7.12-5.61,11.86-6a5.46,5.46,0,0,1,5.74,2.94A17.92,17.92,0,0,1,146.33,18a38,38,0,0,1-.64,15.35c-4.91,17.93-12.68,38.81-21,54.46a5.67,5.67,0,0,0,4.84,5.14,6.17,6.17,0,0,0,6.78-2.18A239,239,0,0,1,166,62.2c9.45-7.71,20.24-11.71,32.53-11.34A32.7,32.7,0,0,1,202,51c3.82.52,5.68,3.11,4.38,6.68-1.68,4.59-3.91,9-7.61,12.29a91.91,91.91,0,0,1-11,8.15c-13.25,8.55-27.36,15.48-41.76,21.85-.78.35-1.62.58-2.37,1a2.9,2.9,0,0,0-.93,4.4,8.22,8.22,0,0,0,3.17,2.7,28,28,0,0,0,7.47,1.68c10.86.65,21.75.82,32.59,1.69,10.54.84,21,2.36,30.85,6.69a39.73,39.73,0,0,1,11.51,7.38c3.94,3.75,3.47,9.61-1.14,12.47a27.13,27.13,0,0,1-13.74,4.47c-5.73.12-11.47.36-17.18,0a43.12,43.12,0,0,1-10-2.16c-9-2.75-17.94-5.89-27-8.45a37.67,37.67,0,0,0-11-1.13c-3.54.08-5.31,3.6-3.72,6.87a20.42,20.42,0,0,0,3.29,5c3.12,3.35,6.37,6.59,9.71,9.72a77,77,0,0,1,15.19,19.62c4.06,7.56,8.2,15.11,11.67,22.94a56.85,56.85,0,0,1,3.68,14c1.47,9.38-2.89,14.84-14.19,13.36-5-.66-9.18-3-13.11-6a69.2,69.2,0,0,1-18.73-21.06c-6.35-11.19-12.19-22.69-16.3-34.94a11.81,11.81,0,0,0-5-6.75,4.19,4.19,0,0,0-4.84,0c-1.54,1-2.56,2.42-1.94,4.33,1.7,5.17.07,10.28-.54,15.29-1.14,9.37-2.94,18.67-4.84,27.92-1.56,7.58-3.57,15.15-8.37,21.42a54.23,54.23,0,0,1-8.51,8.35c-2,1.72-4.24,1.19-6-.87a21.08,21.08,0,0,1-5.27-11.53,57.23,57.23,0,0,1,1.86-22.12c2.73-10.22,6-20.3,9.07-30.44,1.23-4.1,2.5-8.18,3.77-12.27a4.84,4.84,0,0,0-1.54-5.44,4.09,4.09,0,0,0-4.83-.4c-7,3.9-14.21,7.47-20.84,11.91A134.57,134.57,0,0,1,33,176.27a31.39,31.39,0,0,1-4.15,1.12c-7,1.21-11.26-3.37-9.27-10.06a20.21,20.21,0,0,1,3-6.13c9.83-13.38,22.45-22.65,39-26,5-1,10-2.47,15-3.77,2.55-.67,4.92-1.76,5.65-4.58.44-1.7-1.89-4-5.41-4.64-6.74-1.22-13.55-2.08-20.36-2.94-5.66-.72-11.41-.94-17-1.92a27.32,27.32,0,0,1-8.69-3.44,137.88,137.88,0,0,1-14.38-9.3c-4.92-3.74-5.8-8.84-3.61-14.42,4.71-2.7,9.52-2.82,14.41-2.54a95.72,95.72,0,0,1,37.2,9.53C72.1,100.91,80,104,88.91,105Z"/>

</g>

</g>

</svg>